<?xml version="1.0" encoding="UTF-8" standalone="no"?>
<svg
   xmlns:dc="http://purl.org/dc/elements/1.1/"
   xmlns:cc="http://creativecommons.org/ns#"
   xmlns:rdf="http://www.w3.org/1999/02/22-rdf-syntax-ns#"
   xmlns:svg="http://www.w3.org/2000/svg"
   xmlns="http://www.w3.org/2000/svg"
   height="336.44104"
   width="984.13342"
   xml:space="preserve"
   enable-background="new 0 0 1280 800"
   viewBox="0 0 984.13342 336.44104"
   y="0px"
   x="0px"
   id="Capa_1"
   version="1.1"><metadata
     id="metadata158"><rdf:RDF><cc:Work
         rdf:about=""><dc:format>image/svg+xml</dc:format><dc:type
           rdf:resource="http://purl.org/dc/dcmitype/StillImage" /><dc:title></dc:title></cc:Work></rdf:RDF></metadata><defs
     id="defs156" /><g
     transform="translate(-145.86659,-231.76112)"
     id="g3"><g
       id="g5"><g
         id="g7"><path
           style="fill:#5a5b5d"
           id="path9"
           d="m 589.5,446.2 -7.9,0 0,-55.2 -65.6,0 0,55.2 -7.8,0 0,-112.2 7.8,0 0,49.8 65.6,0 0,-49.8 7.9,0 0,112.2 z" /><path
           style="fill:#5a5b5d"
           id="path11"
           d="m 715.6,389.9 c 0,17.8 -4.5,31.9 -13.4,42.3 -8.9,10.4 -21.2,15.5 -36.9,15.5 -15.6,0 -27.9,-5.2 -36.8,-15.5 -8.9,-10.4 -13.4,-24.5 -13.4,-42.4 0,-17.9 4.5,-31.9 13.5,-42.2 9,-10.3 21.3,-15.4 36.8,-15.4 15.7,0 27.9,5.2 36.8,15.5 9,10.3 13.4,24.4 13.4,42.2 z m -91.8,0 c 0,16.1 3.6,28.5 10.7,37.3 7.2,8.8 17.5,13.2 30.9,13.2 13.5,0 23.8,-4.3 31,-13.1 7.1,-8.7 10.7,-21.2 10.7,-37.4 0,-16.2 -3.6,-28.6 -10.7,-37.2 -7.1,-8.6 -17.4,-12.9 -30.8,-12.9 -13.4,0 -23.7,4.4 -30.9,13.1 -7.3,8.7 -10.9,21 -10.9,37 z" /><path
           style="fill:#5a5b5d"
           id="path13"
           d="m 795.5,406.6 -45.6,0 -15.7,39.6 -8.7,0 45.1,-112.7 5,0 44.2,112.7 -8.8,0 -15.5,-39.6 z m -42.8,-7.1 40.2,0 -15.3,-40.5 c -1.3,-3.2 -2.8,-7.6 -4.6,-13.2 -1.4,4.9 -2.9,9.4 -4.5,13.4 l -15.8,40.3 z" /><path
           style="fill:#5a5b5d"
           id="path15"
           d="m 865,446.2 -7.9,0 0,-104.9 -36.5,0 0,-7.3 80.8,0 0,7.4 -36.4,0 0,104.8 z" /><path
           style="fill:#5a5b5d"
           id="path17"
           d="m 986.6,446.2 -78,0 0,-5.8 65.7,-99 -62.7,0 0,-7.4 73.2,0 0,5.8 -65.9,99 67.6,0 0,7.4 z" /><path
           style="fill:#5a5b5d"
           id="path19"
           d="m 1008.8,446.2 0,-112.2 7.8,0 0,112.2 -7.8,0 z" /><path
           style="fill:#5a5b5d"
           id="path21"
           d="m 1130,446.2 -7.9,0 -66.5,-99.7 -0.6,0 c 0.6,11.9 0.9,20.8 0.9,26.9 l 0,72.8 -7.5,0 0,-112.2 7.8,0 66.4,99.5 0.5,0 c -0.5,-9.2 -0.7,-18 -0.7,-26.3 l 0,-73.2 7.6,0 0,112.2 z" /></g></g><g
       id="g23"><linearGradient
         y2="335.57059"
         x2="218.0387"
         y1="336.23221"
         x1="272.19501"
         gradientUnits="userSpaceOnUse"
         id="SVGID_1_"><stop
           id="stop26"
           style="stop-color:#C94927"
           offset="0" /><stop
           id="stop28"
           style="stop-color:#FBC764"
           offset="1" /></linearGradient><path
         style="fill:url(#SVGID_1_)"
         id="path30"
         d="m 230.4,356.5 c -4.1,-0.6 -7.5,-1.7 -9.8,-2.6 -1.2,-0.5 -2.1,-0.9 -2.7,-1.2 -0.4,-0.2 2.5,-6.9 4.6,-11.6 5.5,1.8 8.2,2.7 13.7,4.5 2.2,0.6 4.7,1 7.3,1.1 1.9,0.1 4,0 6,-0.4 2,-0.3 4,-0.9 6,-1.6 3.8,-1.6 7.3,-4.2 9.7,-7.5 2.4,-3.3 4,-7 4.8,-10.4 0.3,-0.8 0.4,-1.7 0.5,-2.4 0.1,-0.4 0.1,-0.8 0.2,-1.1 0.1,-0.4 0.1,-0.7 0.2,-1.1 0.1,-0.7 0.1,-1.4 0.2,-2 0.1,-0.6 0.1,-1.2 0.1,-1.7 0.1,-2.1 0.1,-3.3 0.1,-3.3 0,0 0.2,1.2 0.5,3.2 0.1,0.5 0.1,1.1 0.2,1.7 0.1,0.6 0.1,1.3 0.2,2.1 0,0.4 0,0.8 0,1.1 0,0.4 0,0.8 0,1.2 0,0.8 0,1.7 -0.1,2.6 -0.2,3.7 -1,8 -3.1,12.4 -0.1,0.3 -0.3,0.5 -0.4,0.8 -0.1,0.2 -0.1,0.2 -0.2,0.4 -0.1,0.2 -0.1,0.2 -0.2,0.4 -0.3,0.5 -0.7,1.1 -1,1.6 -0.1,0.2 -0.2,0.2 -0.2,0.4 -0.1,0.2 -0.2,0.2 -0.3,0.4 -0.2,0.3 -0.3,0.5 -0.6,0.8 -0.4,0.5 -0.8,1 -1.2,1.5 -0.4,0.5 -0.9,1 -1.3,1.4 -0.5,0.5 -1,0.9 -1.5,1.3 -0.2,0.2 -0.5,0.5 -0.8,0.7 -0.3,0.2 -0.5,0.4 -0.8,0.6 -0.5,0.4 -1.1,0.8 -1.6,1.2 -2.2,1.5 -4.7,2.7 -7.2,3.6 -2.5,0.9 -5,1.5 -7.5,1.9 -3.1,0.5 -6.1,0.6 -8.9,0.5 -1.7,-0.1 -3.4,-0.2 -4.9,-0.5" /><g
         id="g32"><linearGradient
           y2="352.61749"
           x2="219.0499"
           y1="353.564"
           x1="296.52271"
           gradientUnits="userSpaceOnUse"
           id="SVGID_2_"><stop
             id="stop35"
             style="stop-color:#C94927"
             offset="0" /><stop
             id="stop37"
             style="stop-color:#FBC764"
             offset="1" /></linearGradient><path
           style="fill:url(#SVGID_2_)"
           id="path39"
           d="m 294,340.5 c -0.4,0.4 -0.9,0.8 -1.4,1.3 -0.5,0.5 -1.1,1 -1.7,1.5 -0.3,0.3 -0.6,0.5 -0.9,0.8 -0.3,0.3 -0.7,0.5 -1,0.8 -0.7,0.6 -1.4,1.2 -2.2,1.8 -3,2.4 -6.8,5 -10.8,7 -4,2 -8.6,3.3 -13.1,3.9 -2.3,0.3 -4.6,0.4 -6.9,0.4 -2.3,0 -4.5,-0.2 -6.7,-0.4 -2.9,-0.3 -5.6,-0.8 -8.1,-1.4 -5.1,-1.6 -10.4,-2.7 -15.8,-3.4 -2.7,4.5 -5.3,9.3 -6.6,14.5 0.7,0.1 1.8,0.3 3.2,0.5 2.2,0.3 5.3,0.6 8.8,0.7 0.8,0 1.5,0 2.3,0 4.5,0 9.7,-0.1 15,-0.7 2.7,-0.3 5.4,-0.6 8.1,-1.1 2.7,-0.5 5.4,-1.1 8,-2 0.7,-0.2 1.3,-0.5 1.9,-0.7 0.4,-0.1 0.6,-0.2 1,-0.3 0.3,-0.1 0.6,-0.3 0.9,-0.4 0.6,-0.3 1.3,-0.5 1.9,-0.8 0.6,-0.3 1.2,-0.6 1.8,-0.9 0.6,-0.3 1.2,-0.6 1.8,-0.9 0.3,-0.2 0.5,-0.3 0.9,-0.5 0.2,-0.1 0.3,-0.1 0.4,-0.2 0.2,-0.1 0.2,-0.2 0.4,-0.3 0.5,-0.4 1.1,-0.7 1.7,-1.1 0.2,-0.1 0.2,-0.2 0.4,-0.3 0.2,-0.1 0.2,-0.2 0.4,-0.3 0.3,-0.2 0.5,-0.4 0.8,-0.6 4.1,-3 7.5,-6.3 10.1,-9.3 0.7,-0.7 1.3,-1.5 1.8,-2.1 0.3,-0.3 0.6,-0.7 0.8,-1 0.3,-0.3 0.5,-0.6 0.8,-1 0.5,-0.6 0.9,-1.2 1.3,-1.8 0.4,-0.5 0.8,-1 1.1,-1.5 1.2,-1.8 2,-2.9 2,-2.9 0,0 -0.7,1.1 -2.4,2.7 z" /><linearGradient
           y2="352.61749"
           x2="219.0499"
           y1="353.564"
           x1="296.52271"
           gradientUnits="userSpaceOnUse"
           id="SVGID_3_"><stop
             id="stop42"
             style="stop-color:#C94927"
             offset="0" /><stop
             id="stop44"
             style="stop-color:#FBC764"
             offset="1" /></linearGradient><path
           style="fill:url(#SVGID_3_)"
           id="path46"
           d="m 218.9,367.2 c 0.7,0.1 1.8,0.3 3.2,0.5 2.2,0.3 5.3,0.6 8.8,0.7 0.8,0 1.5,0 2.3,0 4.5,0 9.7,-0.1 15,-0.7 2.7,-0.3 5.4,-0.6 8.1,-1.1 2.7,-0.5 5.4,-1.1 8,-2 0.7,-0.2 1.3,-0.5 1.9,-0.7 0.4,-0.1 0.6,-0.2 1,-0.3 0.3,-0.1 0.6,-0.3 0.9,-0.4 0.6,-0.3 1.3,-0.5 1.9,-0.8 0.6,-0.3 1.2,-0.6 1.8,-0.9 0.6,-0.3 1.2,-0.6 1.8,-0.9 0.3,-0.2 0.5,-0.3 0.9,-0.5 0.2,-0.1 0.3,-0.1 0.4,-0.2 0.2,-0.1 0.2,-0.2 0.4,-0.3 0.5,-0.4 1.1,-0.7 1.7,-1.1 0.2,-0.1 0.2,-0.2 0.4,-0.3 0.2,-0.1 0.2,-0.2 0.4,-0.3 0.3,-0.2 0.5,-0.4 0.8,-0.6 4.1,-3 7.5,-6.3 10.1,-9.3 0.7,-0.7 1.3,-1.5 1.8,-2.1 0.3,-0.3 0.6,-0.7 0.8,-1 0.3,-0.3 0.5,-0.6 0.8,-1 0.5,-0.6 0.9,-1.2 1.3,-1.8 0.4,-0.5 0.8,-1 1.1,-1.5 1.2,-1.8 2,-2.9 2,-2.9 0,0 -1,0.9 -2.7,2.5 -0.4,0.4 -0.9,0.8 -1.4,1.3 -0.5,0.5 -1.1,1 -1.7,1.5 -0.3,0.3 -0.6,0.5 -0.9,0.8 -0.3,0.3 -0.7,0.5 -1,0.8 -0.7,0.6 -1.4,1.2 -2.2,1.8 -3,2.4 -6.8,5 -10.8,7 -4,2 -8.6,3.3 -13.1,3.9 -2.3,0.3 -4.6,0.4 -6.9,0.4 -2.3,0 -4.5,-0.2 -6.7,-0.4 -2.9,-0.3 -5.6,-0.8 -8.1,-1.4 -5.1,-1.6 -10.4,-2.7 -15.8,-3.4 -2.5,4.7 -5,9.5 -6.3,14.7 z" /></g><linearGradient
         y2="328.35849"
         x2="218.037"
         y1="328.83099"
         x1="256.70419"
         gradientUnits="userSpaceOnUse"
         id="SVGID_4_"><stop
           id="stop49"
           style="stop-color:#C94927"
           offset="0" /><stop
           id="stop51"
           style="stop-color:#FBC764"
           offset="1" /></linearGradient><path
         style="fill:url(#SVGID_4_)"
         id="path53"
         d="m 227,343.9 c -2.9,-0.4 -5.4,-1.1 -7.1,-1.7 -0.9,-0.3 -1.5,-0.6 -2,-0.8 -0.3,-0.1 1.7,-5 3.1,-8.5 4,1.2 6,1.8 10,3 1.6,0.4 3.4,0.6 5.3,0.6 1.4,0 2.9,-0.1 4.3,-0.4 1.4,-0.3 2.9,-0.7 4.3,-1.3 2.7,-1.2 5.2,-3.2 6.9,-5.6 1.7,-2.4 2.8,-5.2 3.3,-7.6 0.2,-0.6 0.3,-1.2 0.3,-1.8 0,-0.3 0.1,-0.6 0.1,-0.8 0,-0.3 0.1,-0.5 0.1,-0.8 0,-0.5 0.1,-1 0.1,-1.4 0,-0.4 0.1,-0.9 0.1,-1.2 0,-1.5 0,-2.4 0,-2.4 0,0 0.1,0.9 0.4,2.3 0.1,0.4 0.1,0.8 0.2,1.2 0,0.5 0.1,1 0.2,1.5 0,0.3 0,0.5 0.1,0.8 0,0.3 0,0.6 0,0.9 0,0.6 0.1,1.2 0,1.9 -0.1,2.7 -0.6,5.8 -2,9 -0.1,0.2 -0.2,0.4 -0.3,0.6 -0.1,0.1 -0.1,0.2 -0.1,0.3 -0.1,0.1 -0.1,0.2 -0.2,0.3 -0.2,0.4 -0.5,0.8 -0.7,1.2 -0.1,0.1 -0.1,0.2 -0.2,0.3 -0.1,0.1 -0.1,0.2 -0.2,0.3 -0.2,0.2 -0.2,0.3 -0.4,0.6 -0.3,0.4 -0.5,0.8 -0.9,1.1 -0.3,0.4 -0.6,0.7 -0.9,1.1 -0.3,0.3 -0.7,0.7 -1,1 -0.2,0.2 -0.4,0.3 -0.5,0.5 -0.2,0.2 -0.3,0.3 -0.6,0.4 -0.4,0.3 -0.8,0.6 -1.2,0.9 -1.6,1.1 -3.4,2 -5.1,2.7 -1.8,0.7 -3.6,1.2 -5.4,1.5 -2.2,0.4 -4.4,0.6 -6.4,0.5 -1.2,0.1 -2.4,0 -3.6,-0.2" /><linearGradient
         gradientTransform="matrix(0.9964,0.0853,-0.0853,0.9964,46.9041,-161.6707)"
         y2="588.18231"
         x2="214.136"
         y1="356.7236"
         x1="210.48019"
         gradientUnits="userSpaceOnUse"
         id="SVGID_5_"><stop
           id="stop56"
           style="stop-color:#C94927"
           offset="0" /><stop
           id="stop58"
           style="stop-color:#FBC863"
           offset="1" /></linearGradient><path
         style="fill:url(#SVGID_5_)"
         id="path60"
         d="m 177.6,307.2 c 30.4,24.5 35.8,46.6 34,76.3 -1.4,41.4 -16,75.1 6.5,125.1 8.5,14.6 14.2,29.8 47.9,57.1 -35.2,-5.1 -61.9,-17.6 -80.1,-35.3 -51.3,-50.1 -46.6,-107.8 -23.1,-148.5 13.5,-23.4 12.7,-47.1 3.8,-65.8 0,-0.1 4.7,-6.1 11,-8.9 z" /><linearGradient
         gradientTransform="matrix(0.9964,0.0853,-0.0853,0.9964,46.9041,-161.6707)"
         y2="509.67801"
         x2="190.0108"
         y1="470.0419"
         x1="328.57401"
         gradientUnits="userSpaceOnUse"
         id="SVGID_6_"><stop
           id="stop63"
           style="stop-color:#FBC863"
           offset="0" /><stop
           id="stop65"
           style="stop-color:#ECD399"
           offset="1" /></linearGradient><path
         style="fill:url(#SVGID_6_)"
         id="path67"
         d="m 342.5,356 c 3.9,-26.3 -10.1,-82.4 -62.8,-94.8 -18.8,0.3 -50.4,8.2 -75.8,24.8 55.2,-23.1 93.9,13.7 104.4,48.7 12.2,42.4 -15,95.3 -75.9,95.6 44.9,14.6 101.1,-13.4 110.1,-74.3 z" /><linearGradient
         gradientTransform="matrix(0.9964,0.0853,-0.0853,0.9964,46.9041,-161.6707)"
         y2="563.33002"
         x2="259.67859"
         y1="438.59869"
         x1="335.4299"
         gradientUnits="userSpaceOnUse"
         id="SVGID_7_"><stop
           id="stop70"
           style="stop-color:#C94927"
           offset="0" /><stop
           id="stop72"
           style="stop-color:#FBC863"
           offset="1" /></linearGradient><path
         style="fill:url(#SVGID_7_)"
         id="path74"
         d="m 370.4,397.5 c 12.8,-23.9 29.2,-78.5 -21.1,-123.4 -23.3,-10.7 -47.1,-14.1 -70,-13 58,17.1 66,76.5 62.2,94.9 -2.6,30.5 -38,92.2 -111.1,73.2 60.2,41.8 123.1,-0.2 140,-31.7 z" /><linearGradient
         gradientTransform="matrix(0.9964,0.0853,-0.0853,0.9964,46.9041,-161.6707)"
         y2="506.62491"
         x2="398.05911"
         y1="506.62491"
         x1="201.5775"
         gradientUnits="userSpaceOnUse"
         id="SVGID_8_"><stop
           id="stop77"
           style="stop-color:#2A150B"
           offset="0" /><stop
           id="stop79"
           style="stop-color:#711A12"
           offset="1" /></linearGradient><path
         style="fill:url(#SVGID_8_)"
         id="path81"
         d="m 380.2,449.3 c 16.4,-10.5 50.3,-38 52.4,-83.6 -10,-34.6 -42.1,-74.6 -83.3,-91.6 56.2,54.6 26.8,111.3 21.3,122.4 -17.9,34 -82.4,72.7 -140.5,32.3 61.2,67.4 139.6,28.9 150.1,20.5 z" /><linearGradient
         gradientTransform="matrix(0.9964,0.0853,-0.0853,0.9964,46.9041,-161.6707)"
         y2="644.87079"
         x2="480.68951"
         y1="533.61292"
         x1="303.78491"
         gradientUnits="userSpaceOnUse"
         id="SVGID_9_"><stop
           id="stop84"
           style="stop-color:#2A150B"
           offset="0" /><stop
           id="stop86"
           style="stop-color:#711A12"
           offset="1" /></linearGradient><path
         style="fill:url(#SVGID_9_)"
         id="path88"
         d="m 382.7,534.3 c 50.6,-39 71.1,-111.7 50,-168.6 -7.5,47.9 -31.9,69.2 -52.4,83.7 -42.3,24.3 -102.7,29.9 -149.9,-20.2 27.5,97.4 122.3,112.3 152.3,105.1 z" /><linearGradient
         gradientTransform="matrix(0.9964,0.0853,-0.0853,0.9964,46.9041,-161.6707)"
         y2="663.51617"
         x2="417.33841"
         y1="572.29089"
         x1="209.679"
         gradientUnits="userSpaceOnUse"
         id="SVGID_10_"><stop
           id="stop91"
           style="stop-color:#711A12"
           offset="0" /><stop
           id="stop93"
           style="stop-color:#862517"
           offset="0.1328" /><stop
           id="stop95"
           style="stop-color:#A3351E"
           offset="0.3557" /><stop
           id="stop97"
           style="stop-color:#B84023"
           offset="0.5769" /><stop
           id="stop99"
           style="stop-color:#C54726"
           offset="0.7934" /><stop
           id="stop101"
           style="stop-color:#C94927"
           offset="1" /></linearGradient><path
         style="fill:url(#SVGID_10_)"
         id="path103"
         d="m 205.2,341 c 8.7,15.9 8,43.7 2.2,84.3 -10.1,71.1 24.3,114.2 58.4,140.1 34.1,8.2 79,-1.4 116.9,-31.4 -48.7,4.5 -120,-15.3 -152.1,-104.6 -7.3,-63.1 7.4,-71.5 -8,-96.3 -6.7,-10.6 -19.4,-16.5 -48,-28 7.8,6.2 16.8,11.4 30.6,35.9 z" /><g
         id="g105"><linearGradient
           gradientTransform="matrix(0.8744,-0.4853,0.4853,0.8744,200.1609,1005.4262)"
           y2="-626.48792"
           x2="422.88989"
           y1="-676.62708"
           x1="437.1767"
           gradientUnits="userSpaceOnUse"
           id="Third_Tale_1_"><stop
             id="stop108"
             style="stop-color:#2A150B"
             offset="0" /><stop
             id="stop110"
             style="stop-color:#711A12"
             offset="1" /></linearGradient><path
           style="fill:url(#Third_Tale_1_)"
           d="m 305.8,262.6 c -35.4,-9.2 -64,-4.1 -73.1,-9.1 -15.3,-7.1 5.4,-23.8 19.2,-21.4 11.7,2.4 30.2,6.6 53.9,30.5 z"
           id="Third_Tale_10_" /><linearGradient
           gradientTransform="matrix(0.8744,-0.4853,0.4853,0.8744,200.1609,1005.4262)"
           y2="-607.20673"
           x2="403.33511"
           y1="-670.62671"
           x1="425.51129"
           gradientUnits="userSpaceOnUse"
           id="Second_Tale_1_"><stop
             id="stop114"
             style="stop-color:#2A150B"
             offset="0" /><stop
             id="stop116"
             style="stop-color:#711A12"
             offset="1" /></linearGradient><path
           style="fill:url(#Second_Tale_1_)"
           d="m 305.8,262.6 c -39,-6.2 -83.3,15.7 -91.9,12.6 -14.9,-2.4 -9.4,-25 19.1,-23.1 24.1,-0.3 39.1,-1.7 72.8,10.5 z"
           id="Second_Tale_10_" /><linearGradient
           gradientTransform="matrix(0.9855,-0.1695,0.1695,0.9855,88.2388,366.8112)"
           y2="-58.319302"
           x2="177.0401"
           y1="-90.519699"
           x1="175.77769"
           gradientUnits="userSpaceOnUse"
           id="First_Tale_1_"><stop
             id="stop120"
             style="stop-color:#2A150B"
             offset="0" /><stop
             id="stop122"
             style="stop-color:#711A12"
             offset="1" /></linearGradient><path
           style="fill:url(#First_Tale_1_)"
           d="m 305.8,262.6 c -64,-11.4 -63.1,49.4 -95.2,41.6 -6.6,-1.6 -24.4,-17.7 3.1,-30.1 21.8,-10.8 59,-26.4 92.1,-11.5 z"
           id="First_Tale_10_" /><linearGradient
           gradientTransform="matrix(0.8744,-0.4853,0.4853,0.8744,200.1609,1005.4262)"
           y2="-645.19958"
           x2="414.4852"
           y1="-664.12183"
           x1="419.87701"
           gradientUnits="userSpaceOnUse"
           id="Third_Tale_2_"><stop
             id="stop126"
             style="stop-color:#FBC863"
             offset="0" /><stop
             id="stop128"
             style="stop-color:#ECD399"
             offset="1" /></linearGradient><path
           style="fill:url(#Third_Tale_2_)"
           d="m 273.2,238.8 c -12.8,-3.9 -34.8,-7.5 -43.1,13.2 -9.6,-5 4.8,-33.1 43.1,-13.2 z"
           id="Third_Tale_9_" /><linearGradient
           gradientTransform="matrix(0.8744,-0.4853,0.4853,0.8744,200.1609,1005.4262)"
           y2="-619.05682"
           x2="384.1376"
           y1="-674.54938"
           x1="403.54181"
           gradientUnits="userSpaceOnUse"
           id="Second_Tale_2_"><stop
             id="stop132"
             style="stop-color:#FBC863"
             offset="0" /><stop
             id="stop134"
             style="stop-color:#ECD399"
             offset="1" /></linearGradient><path
           style="fill:url(#Second_Tale_2_)"
           d="m 260.1,252.2 c -24.4,1.9 -48,3 -48,22.6 -18.9,-6.5 1,-32.9 48,-22.6 z"
           id="Second_Tale_9_" /><linearGradient
           gradientTransform="matrix(0.9855,-0.1695,0.1695,0.9855,88.2388,366.8112)"
           y2="-56.5271"
           x2="141.8893"
           y1="-86.616501"
           x1="140.7097"
           gradientUnits="userSpaceOnUse"
           id="First_Tale_2_"><stop
             id="stop138"
             style="stop-color:#FBC863"
             offset="0" /><stop
             id="stop140"
             style="stop-color:#ECD399"
             offset="1" /></linearGradient><path
           style="fill:url(#First_Tale_2_)"
           d="m 234.5,264.9 c -17.2,8.8 -35.9,21.1 -19.8,39.9 -18.3,-0.5 -30.7,-28.2 19.8,-39.9 z"
           id="First_Tale_9_" /></g><linearGradient
         gradientTransform="matrix(0.9972,0.0754,-0.0754,0.9972,28.5335,-133.3727)"
         y2="450.7034"
         x2="212.9536"
         y1="450.7034"
         x1="196.70711"
         gradientUnits="userSpaceOnUse"
         id="SVGID_11_"><stop
           id="stop144"
           style="stop-color:#7EB7E3"
           offset="0" /><stop
           id="stop146"
           style="stop-color:#0087C9"
           offset="1" /></linearGradient><path
         style="fill:url(#SVGID_11_)"
         id="path148"
         d="m 204.3,339.8 c 7.2,-9.2 -2.5,-11.4 -12.8,-19.3 3.3,10.9 6.2,27.8 12.8,19.3 z" /><circle
         style="fill:#282827"
         id="circle150"
         r="3.3"
         cy="328.29999"
         cx="197.3" /><path
         style="fill:#2a150b"
         id="path152"
         d="m 152.9,301.9 c 8.4,3.6 13.8,14.1 13.8,14.1 0,0 4.9,-6.5 12.1,-9.3 -2.5,-1.6 -4.3,-2.6 -5.9,-3.4 -2,-1.1 -3.5,-1.6 -5.2,-2.2 -3.9,-1.5 -7.6,-2.2 -14.8,0.8 z" /></g></g></svg>