<?xml version="1.0" encoding="UTF-8" standalone="no"?>
<svg
   xmlns:dc="http://purl.org/dc/elements/1.1/"
   xmlns:cc="http://creativecommons.org/ns#"
   xmlns:rdf="http://www.w3.org/1999/02/22-rdf-syntax-ns#"
   xmlns:svg="http://www.w3.org/2000/svg"
   xmlns="http://www.w3.org/2000/svg"
   version="1.1"
   id="Capa_1"
   x="0px"
   y="0px"
   viewBox="0 0 295.05823 336.44104"
   enable-background="new 0 0 1280 800"
   xml:space="preserve"
   width="295.05823"
   height="336.44104"><metadata
     id="metadata158"><rdf:RDF><cc:Work
         rdf:about=""><dc:format>image/svg+xml</dc:format><dc:type
           rdf:resource="http://purl.org/dc/dcmitype/StillImage" /><dc:title></dc:title></cc:Work></rdf:RDF></metadata><defs
     id="defs156" /><g
     id="g3"
     transform="translate(-145.86659,-231.76112)"><g
       id="g23"><linearGradient
         id="SVGID_1_"
         gradientUnits="userSpaceOnUse"
         x1="272.19501"
         y1="336.23221"
         x2="218.0387"
         y2="335.57059"><stop
           offset="0"
           style="stop-color:#C94927"
           id="stop26" /><stop
           offset="1"
           style="stop-color:#FBC764"
           id="stop28" /></linearGradient><path
         d="m 230.4,356.5 c -4.1,-0.6 -7.5,-1.7 -9.8,-2.6 -1.2,-0.5 -2.1,-0.9 -2.7,-1.2 -0.4,-0.2 2.5,-6.9 4.6,-11.6 5.5,1.8 8.2,2.7 13.7,4.5 2.2,0.6 4.7,1 7.3,1.1 1.9,0.1 4,0 6,-0.4 2,-0.3 4,-0.9 6,-1.6 3.8,-1.6 7.3,-4.2 9.7,-7.5 2.4,-3.3 4,-7 4.8,-10.4 0.3,-0.8 0.4,-1.7 0.5,-2.4 0.1,-0.4 0.1,-0.8 0.2,-1.1 0.1,-0.4 0.1,-0.7 0.2,-1.1 0.1,-0.7 0.1,-1.4 0.2,-2 0.1,-0.6 0.1,-1.2 0.1,-1.7 0.1,-2.1 0.1,-3.3 0.1,-3.3 0,0 0.2,1.2 0.5,3.2 0.1,0.5 0.1,1.1 0.2,1.7 0.1,0.6 0.1,1.3 0.2,2.1 0,0.4 0,0.8 0,1.1 0,0.4 0,0.8 0,1.2 0,0.8 0,1.7 -0.1,2.6 -0.2,3.7 -1,8 -3.1,12.4 -0.1,0.3 -0.3,0.5 -0.4,0.8 -0.1,0.2 -0.1,0.2 -0.2,0.4 -0.1,0.2 -0.1,0.2 -0.2,0.4 -0.3,0.5 -0.7,1.1 -1,1.6 -0.1,0.2 -0.2,0.2 -0.2,0.4 -0.1,0.2 -0.2,0.2 -0.3,0.4 -0.2,0.3 -0.3,0.5 -0.6,0.8 -0.4,0.5 -0.8,1 -1.2,1.5 -0.4,0.5 -0.9,1 -1.3,1.4 -0.5,0.5 -1,0.9 -1.5,1.3 -0.2,0.2 -0.5,0.5 -0.8,0.7 -0.3,0.2 -0.5,0.4 -0.8,0.6 -0.5,0.4 -1.1,0.8 -1.6,1.2 -2.2,1.5 -4.7,2.7 -7.2,3.6 -2.5,0.9 -5,1.5 -7.5,1.9 -3.1,0.5 -6.1,0.6 -8.9,0.5 -1.7,-0.1 -3.4,-0.2 -4.9,-0.5"
         id="path30"
         style="fill:url(#SVGID_1_)" /><g
         id="g32"><linearGradient
           id="SVGID_2_"
           gradientUnits="userSpaceOnUse"
           x1="296.52271"
           y1="353.564"
           x2="219.0499"
           y2="352.61749"><stop
             offset="0"
             style="stop-color:#C94927"
             id="stop35" /><stop
             offset="1"
             style="stop-color:#FBC764"
             id="stop37" /></linearGradient><path
           d="m 294,340.5 c -0.4,0.4 -0.9,0.8 -1.4,1.3 -0.5,0.5 -1.1,1 -1.7,1.5 -0.3,0.3 -0.6,0.5 -0.9,0.8 -0.3,0.3 -0.7,0.5 -1,0.8 -0.7,0.6 -1.4,1.2 -2.2,1.8 -3,2.4 -6.8,5 -10.8,7 -4,2 -8.6,3.3 -13.1,3.9 -2.3,0.3 -4.6,0.4 -6.9,0.4 -2.3,0 -4.5,-0.2 -6.7,-0.4 -2.9,-0.3 -5.6,-0.8 -8.1,-1.4 -5.1,-1.6 -10.4,-2.7 -15.8,-3.4 -2.7,4.5 -5.3,9.3 -6.6,14.5 0.7,0.1 1.8,0.3 3.2,0.5 2.2,0.3 5.3,0.6 8.8,0.7 0.8,0 1.5,0 2.3,0 4.5,0 9.7,-0.1 15,-0.7 2.7,-0.3 5.4,-0.6 8.1,-1.1 2.7,-0.5 5.4,-1.1 8,-2 0.7,-0.2 1.3,-0.5 1.9,-0.7 0.4,-0.1 0.6,-0.2 1,-0.3 0.3,-0.1 0.6,-0.3 0.9,-0.4 0.6,-0.3 1.3,-0.5 1.9,-0.8 0.6,-0.3 1.2,-0.6 1.8,-0.9 0.6,-0.3 1.2,-0.6 1.8,-0.9 0.3,-0.2 0.5,-0.3 0.9,-0.5 0.2,-0.1 0.3,-0.1 0.4,-0.2 0.2,-0.1 0.2,-0.2 0.4,-0.3 0.5,-0.4 1.1,-0.7 1.7,-1.1 0.2,-0.1 0.2,-0.2 0.4,-0.3 0.2,-0.1 0.2,-0.2 0.4,-0.3 0.3,-0.2 0.5,-0.4 0.8,-0.6 4.1,-3 7.5,-6.3 10.1,-9.3 0.7,-0.7 1.3,-1.5 1.8,-2.1 0.3,-0.3 0.6,-0.7 0.8,-1 0.3,-0.3 0.5,-0.6 0.8,-1 0.5,-0.6 0.9,-1.2 1.3,-1.8 0.4,-0.5 0.8,-1 1.1,-1.5 1.2,-1.8 2,-2.9 2,-2.9 0,0 -0.7,1.1 -2.4,2.7 z"
           id="path39"
           style="fill:url(#SVGID_2_)" /><linearGradient
           id="SVGID_3_"
           gradientUnits="userSpaceOnUse"
           x1="296.52271"
           y1="353.564"
           x2="219.0499"
           y2="352.61749"><stop
             offset="0"
             style="stop-color:#C94927"
             id="stop42" /><stop
             offset="1"
             style="stop-color:#FBC764"
             id="stop44" /></linearGradient><path
           d="m 218.9,367.2 c 0.7,0.1 1.8,0.3 3.2,0.5 2.2,0.3 5.3,0.6 8.8,0.7 0.8,0 1.5,0 2.3,0 4.5,0 9.7,-0.1 15,-0.7 2.7,-0.3 5.4,-0.6 8.1,-1.1 2.7,-0.5 5.4,-1.1 8,-2 0.7,-0.2 1.3,-0.5 1.9,-0.7 0.4,-0.1 0.6,-0.2 1,-0.3 0.3,-0.1 0.6,-0.3 0.9,-0.4 0.6,-0.3 1.3,-0.5 1.9,-0.8 0.6,-0.3 1.2,-0.6 1.8,-0.9 0.6,-0.3 1.2,-0.6 1.8,-0.9 0.3,-0.2 0.5,-0.3 0.9,-0.5 0.2,-0.1 0.3,-0.1 0.4,-0.2 0.2,-0.1 0.2,-0.2 0.4,-0.3 0.5,-0.4 1.1,-0.7 1.7,-1.1 0.2,-0.1 0.2,-0.2 0.4,-0.3 0.2,-0.1 0.2,-0.2 0.4,-0.3 0.3,-0.2 0.5,-0.4 0.8,-0.6 4.1,-3 7.5,-6.3 10.1,-9.3 0.7,-0.7 1.3,-1.5 1.8,-2.1 0.3,-0.3 0.6,-0.7 0.8,-1 0.3,-0.3 0.5,-0.6 0.8,-1 0.5,-0.6 0.9,-1.2 1.3,-1.8 0.4,-0.5 0.8,-1 1.1,-1.5 1.2,-1.8 2,-2.9 2,-2.9 0,0 -1,0.9 -2.7,2.5 -0.4,0.4 -0.9,0.8 -1.4,1.3 -0.5,0.5 -1.1,1 -1.7,1.5 -0.3,0.3 -0.6,0.5 -0.9,0.8 -0.3,0.3 -0.7,0.5 -1,0.8 -0.7,0.6 -1.4,1.2 -2.2,1.8 -3,2.4 -6.8,5 -10.8,7 -4,2 -8.6,3.3 -13.1,3.9 -2.3,0.3 -4.6,0.4 -6.9,0.4 -2.3,0 -4.5,-0.2 -6.7,-0.4 -2.9,-0.3 -5.6,-0.8 -8.1,-1.4 -5.1,-1.6 -10.4,-2.7 -15.8,-3.4 -2.5,4.7 -5,9.5 -6.3,14.7 z"
           id="path46"
           style="fill:url(#SVGID_3_)" /></g><linearGradient
         id="SVGID_4_"
         gradientUnits="userSpaceOnUse"
         x1="256.70419"
         y1="328.83099"
         x2="218.037"
         y2="328.35849"><stop
           offset="0"
           style="stop-color:#C94927"
           id="stop49" /><stop
           offset="1"
           style="stop-color:#FBC764"
           id="stop51" /></linearGradient><path
         d="m 227,343.9 c -2.9,-0.4 -5.4,-1.1 -7.1,-1.7 -0.9,-0.3 -1.5,-0.6 -2,-0.8 -0.3,-0.1 1.7,-5 3.1,-8.5 4,1.2 6,1.8 10,3 1.6,0.4 3.4,0.6 5.3,0.6 1.4,0 2.9,-0.1 4.3,-0.4 1.4,-0.3 2.9,-0.7 4.3,-1.3 2.7,-1.2 5.2,-3.2 6.9,-5.6 1.7,-2.4 2.8,-5.2 3.3,-7.6 0.2,-0.6 0.3,-1.2 0.3,-1.8 0,-0.3 0.1,-0.6 0.1,-0.8 0,-0.3 0.1,-0.5 0.1,-0.8 0,-0.5 0.1,-1 0.1,-1.4 0,-0.4 0.1,-0.9 0.1,-1.2 0,-1.5 0,-2.4 0,-2.4 0,0 0.1,0.9 0.4,2.3 0.1,0.4 0.1,0.8 0.2,1.2 0,0.5 0.1,1 0.2,1.5 0,0.3 0,0.5 0.1,0.8 0,0.3 0,0.6 0,0.9 0,0.6 0.1,1.2 0,1.9 -0.1,2.7 -0.6,5.8 -2,9 -0.1,0.2 -0.2,0.4 -0.3,0.6 -0.1,0.1 -0.1,0.2 -0.1,0.3 -0.1,0.1 -0.1,0.2 -0.2,0.3 -0.2,0.4 -0.5,0.8 -0.7,1.2 -0.1,0.1 -0.1,0.2 -0.2,0.3 -0.1,0.1 -0.1,0.2 -0.2,0.3 -0.2,0.2 -0.2,0.3 -0.4,0.6 -0.3,0.4 -0.5,0.8 -0.9,1.1 -0.3,0.4 -0.6,0.7 -0.9,1.1 -0.3,0.3 -0.7,0.7 -1,1 -0.2,0.2 -0.4,0.3 -0.5,0.5 -0.2,0.2 -0.3,0.3 -0.6,0.4 -0.4,0.3 -0.8,0.6 -1.2,0.9 -1.6,1.1 -3.4,2 -5.1,2.7 -1.8,0.7 -3.6,1.2 -5.4,1.5 -2.2,0.4 -4.4,0.6 -6.4,0.5 -1.2,0.1 -2.4,0 -3.6,-0.2"
         id="path53"
         style="fill:url(#SVGID_4_)" /><linearGradient
         id="SVGID_5_"
         gradientUnits="userSpaceOnUse"
         x1="210.48019"
         y1="356.7236"
         x2="214.136"
         y2="588.18231"
         gradientTransform="matrix(0.9964,0.0853,-0.0853,0.9964,46.9041,-161.6707)"><stop
           offset="0"
           style="stop-color:#C94927"
           id="stop56" /><stop
           offset="1"
           style="stop-color:#FBC863"
           id="stop58" /></linearGradient><path
         d="m 177.6,307.2 c 30.4,24.5 35.8,46.6 34,76.3 -1.4,41.4 -16,75.1 6.5,125.1 8.5,14.6 14.2,29.8 47.9,57.1 -35.2,-5.1 -61.9,-17.6 -80.1,-35.3 -51.3,-50.1 -46.6,-107.8 -23.1,-148.5 13.5,-23.4 12.7,-47.1 3.8,-65.8 0,-0.1 4.7,-6.1 11,-8.9 z"
         id="path60"
         style="fill:url(#SVGID_5_)" /><linearGradient
         id="SVGID_6_"
         gradientUnits="userSpaceOnUse"
         x1="328.57401"
         y1="470.0419"
         x2="190.0108"
         y2="509.67801"
         gradientTransform="matrix(0.9964,0.0853,-0.0853,0.9964,46.9041,-161.6707)"><stop
           offset="0"
           style="stop-color:#FBC863"
           id="stop63" /><stop
           offset="1"
           style="stop-color:#ECD399"
           id="stop65" /></linearGradient><path
         d="m 342.5,356 c 3.9,-26.3 -10.1,-82.4 -62.8,-94.8 -18.8,0.3 -50.4,8.2 -75.8,24.8 55.2,-23.1 93.9,13.7 104.4,48.7 12.2,42.4 -15,95.3 -75.9,95.6 44.9,14.6 101.1,-13.4 110.1,-74.3 z"
         id="path67"
         style="fill:url(#SVGID_6_)" /><linearGradient
         id="SVGID_7_"
         gradientUnits="userSpaceOnUse"
         x1="335.4299"
         y1="438.59869"
         x2="259.67859"
         y2="563.33002"
         gradientTransform="matrix(0.9964,0.0853,-0.0853,0.9964,46.9041,-161.6707)"><stop
           offset="0"
           style="stop-color:#C94927"
           id="stop70" /><stop
           offset="1"
           style="stop-color:#FBC863"
           id="stop72" /></linearGradient><path
         d="m 370.4,397.5 c 12.8,-23.9 29.2,-78.5 -21.1,-123.4 -23.3,-10.7 -47.1,-14.1 -70,-13 58,17.1 66,76.5 62.2,94.9 -2.6,30.5 -38,92.2 -111.1,73.2 60.2,41.8 123.1,-0.2 140,-31.7 z"
         id="path74"
         style="fill:url(#SVGID_7_)" /><linearGradient
         id="SVGID_8_"
         gradientUnits="userSpaceOnUse"
         x1="201.5775"
         y1="506.62491"
         x2="398.05911"
         y2="506.62491"
         gradientTransform="matrix(0.9964,0.0853,-0.0853,0.9964,46.9041,-161.6707)"><stop
           offset="0"
           style="stop-color:#2A150B"
           id="stop77" /><stop
           offset="1"
           style="stop-color:#711A12"
           id="stop79" /></linearGradient><path
         d="m 380.2,449.3 c 16.4,-10.5 50.3,-38 52.4,-83.6 -10,-34.6 -42.1,-74.6 -83.3,-91.6 56.2,54.6 26.8,111.3 21.3,122.4 -17.9,34 -82.4,72.7 -140.5,32.3 61.2,67.4 139.6,28.9 150.1,20.5 z"
         id="path81"
         style="fill:url(#SVGID_8_)" /><linearGradient
         id="SVGID_9_"
         gradientUnits="userSpaceOnUse"
         x1="303.78491"
         y1="533.61292"
         x2="480.68951"
         y2="644.87079"
         gradientTransform="matrix(0.9964,0.0853,-0.0853,0.9964,46.9041,-161.6707)"><stop
           offset="0"
           style="stop-color:#2A150B"
           id="stop84" /><stop
           offset="1"
           style="stop-color:#711A12"
           id="stop86" /></linearGradient><path
         d="m 382.7,534.3 c 50.6,-39 71.1,-111.7 50,-168.6 -7.5,47.9 -31.9,69.2 -52.4,83.7 -42.3,24.3 -102.7,29.9 -149.9,-20.2 27.5,97.4 122.3,112.3 152.3,105.1 z"
         id="path88"
         style="fill:url(#SVGID_9_)" /><linearGradient
         id="SVGID_10_"
         gradientUnits="userSpaceOnUse"
         x1="209.679"
         y1="572.29089"
         x2="417.33841"
         y2="663.51617"
         gradientTransform="matrix(0.9964,0.0853,-0.0853,0.9964,46.9041,-161.6707)"><stop
           offset="0"
           style="stop-color:#711A12"
           id="stop91" /><stop
           offset="0.1328"
           style="stop-color:#862517"
           id="stop93" /><stop
           offset="0.3557"
           style="stop-color:#A3351E"
           id="stop95" /><stop
           offset="0.5769"
           style="stop-color:#B84023"
           id="stop97" /><stop
           offset="0.7934"
           style="stop-color:#C54726"
           id="stop99" /><stop
           offset="1"
           style="stop-color:#C94927"
           id="stop101" /></linearGradient><path
         d="m 205.2,341 c 8.7,15.9 8,43.7 2.2,84.3 -10.1,71.1 24.3,114.2 58.4,140.1 34.1,8.2 79,-1.4 116.9,-31.4 -48.7,4.5 -120,-15.3 -152.1,-104.6 -7.3,-63.1 7.4,-71.5 -8,-96.3 -6.7,-10.6 -19.4,-16.5 -48,-28 7.8,6.2 16.8,11.4 30.6,35.9 z"
         id="path103"
         style="fill:url(#SVGID_10_)" /><g
         id="g105"><linearGradient
           id="Third_Tale_1_"
           gradientUnits="userSpaceOnUse"
           x1="437.1767"
           y1="-676.62708"
           x2="422.88989"
           y2="-626.48792"
           gradientTransform="matrix(0.8744,-0.4853,0.4853,0.8744,200.1609,1005.4262)"><stop
             offset="0"
             style="stop-color:#2A150B"
             id="stop108" /><stop
             offset="1"
             style="stop-color:#711A12"
             id="stop110" /></linearGradient><path
           id="Third_Tale_10_"
           d="m 305.8,262.6 c -35.4,-9.2 -64,-4.1 -73.1,-9.1 -15.3,-7.1 5.4,-23.8 19.2,-21.4 11.7,2.4 30.2,6.6 53.9,30.5 z"
           style="fill:url(#Third_Tale_1_)" /><linearGradient
           id="Second_Tale_1_"
           gradientUnits="userSpaceOnUse"
           x1="425.51129"
           y1="-670.62671"
           x2="403.33511"
           y2="-607.20673"
           gradientTransform="matrix(0.8744,-0.4853,0.4853,0.8744,200.1609,1005.4262)"><stop
             offset="0"
             style="stop-color:#2A150B"
             id="stop114" /><stop
             offset="1"
             style="stop-color:#711A12"
             id="stop116" /></linearGradient><path
           id="Second_Tale_10_"
           d="m 305.8,262.6 c -39,-6.2 -83.3,15.7 -91.9,12.6 -14.9,-2.4 -9.4,-25 19.1,-23.1 24.1,-0.3 39.1,-1.7 72.8,10.5 z"
           style="fill:url(#Second_Tale_1_)" /><linearGradient
           id="First_Tale_1_"
           gradientUnits="userSpaceOnUse"
           x1="175.77769"
           y1="-90.519699"
           x2="177.0401"
           y2="-58.319302"
           gradientTransform="matrix(0.9855,-0.1695,0.1695,0.9855,88.2388,366.8112)"><stop
             offset="0"
             style="stop-color:#2A150B"
             id="stop120" /><stop
             offset="1"
             style="stop-color:#711A12"
             id="stop122" /></linearGradient><path
           id="First_Tale_10_"
           d="m 305.8,262.6 c -64,-11.4 -63.1,49.4 -95.2,41.6 -6.6,-1.6 -24.4,-17.7 3.1,-30.1 21.8,-10.8 59,-26.4 92.1,-11.5 z"
           style="fill:url(#First_Tale_1_)" /><linearGradient
           id="Third_Tale_2_"
           gradientUnits="userSpaceOnUse"
           x1="419.87701"
           y1="-664.12183"
           x2="414.4852"
           y2="-645.19958"
           gradientTransform="matrix(0.8744,-0.4853,0.4853,0.8744,200.1609,1005.4262)"><stop
             offset="0"
             style="stop-color:#FBC863"
             id="stop126" /><stop
             offset="1"
             style="stop-color:#ECD399"
             id="stop128" /></linearGradient><path
           id="Third_Tale_9_"
           d="m 273.2,238.8 c -12.8,-3.9 -34.8,-7.5 -43.1,13.2 -9.6,-5 4.8,-33.1 43.1,-13.2 z"
           style="fill:url(#Third_Tale_2_)" /><linearGradient
           id="Second_Tale_2_"
           gradientUnits="userSpaceOnUse"
           x1="403.54181"
           y1="-674.54938"
           x2="384.1376"
           y2="-619.05682"
           gradientTransform="matrix(0.8744,-0.4853,0.4853,0.8744,200.1609,1005.4262)"><stop
             offset="0"
             style="stop-color:#FBC863"
             id="stop132" /><stop
             offset="1"
             style="stop-color:#ECD399"
             id="stop134" /></linearGradient><path
           id="Second_Tale_9_"
           d="m 260.1,252.2 c -24.4,1.9 -48,3 -48,22.6 -18.9,-6.5 1,-32.9 48,-22.6 z"
           style="fill:url(#Second_Tale_2_)" /><linearGradient
           id="First_Tale_2_"
           gradientUnits="userSpaceOnUse"
           x1="140.7097"
           y1="-86.616501"
           x2="141.8893"
           y2="-56.5271"
           gradientTransform="matrix(0.9855,-0.1695,0.1695,0.9855,88.2388,366.8112)"><stop
             offset="0"
             style="stop-color:#FBC863"
             id="stop138" /><stop
             offset="1"
             style="stop-color:#ECD399"
             id="stop140" /></linearGradient><path
           id="First_Tale_9_"
           d="m 234.5,264.9 c -17.2,8.8 -35.9,21.1 -19.8,39.9 -18.3,-0.5 -30.7,-28.2 19.8,-39.9 z"
           style="fill:url(#First_Tale_2_)" /></g><linearGradient
         id="SVGID_11_"
         gradientUnits="userSpaceOnUse"
         x1="196.70711"
         y1="450.7034"
         x2="212.9536"
         y2="450.7034"
         gradientTransform="matrix(0.9972,0.0754,-0.0754,0.9972,28.5335,-133.3727)"><stop
           offset="0"
           style="stop-color:#7EB7E3"
           id="stop144" /><stop
           offset="1"
           style="stop-color:#0087C9"
           id="stop146" /></linearGradient><path
         d="m 204.3,339.8 c 7.2,-9.2 -2.5,-11.4 -12.8,-19.3 3.3,10.9 6.2,27.8 12.8,19.3 z"
         id="path148"
         style="fill:url(#SVGID_11_)" /><circle
         cx="197.3"
         cy="328.29999"
         r="3.3"
         id="circle150"
         style="fill:#282827" /><path
         d="m 152.9,301.9 c 8.4,3.6 13.8,14.1 13.8,14.1 0,0 4.9,-6.5 12.1,-9.3 -2.5,-1.6 -4.3,-2.6 -5.9,-3.4 -2,-1.1 -3.5,-1.6 -5.2,-2.2 -3.9,-1.5 -7.6,-2.2 -14.8,0.8 z"
         id="path152"
         style="fill:#2a150b" /></g></g></svg>